<svg xmlns="http://www.w3.org/2000/svg" viewBox="0 0 350.06 104.65"><defs><style>.cls-1{fill:#091825;}.cls-2{fill:#ffb414;}.cls-3{fill:#63f;}</style></defs><title>Asset 7</title><g id="Layer_2" data-name="Layer 2"><g id="Layer_1-2" data-name="Layer 1"><path class="cls-1" d="M29.48,60.91a1.61,1.61,0,0,1,.62.65,1,1,0,0,1-.08.94l-4.18,5.94a1,1,0,0,1-.58.48,1.12,1.12,0,0,1-.76-.21,9.36,9.36,0,0,0-2.67-1.41,9.53,9.53,0,0,0-3.09-.49,9,9,0,0,0-3.74.76,9.2,9.2,0,0,0-2.95,2.11,9.93,9.93,0,0,0-1.93,3.12,10.84,10.84,0,0,0,0,7.61,9.79,9.79,0,0,0,1.93,3.09A9.15,9.15,0,0,0,15,85.59a9,9,0,0,0,3.74.77,9.62,9.62,0,0,0,5.81-1.93,1.12,1.12,0,0,1,.75-.22,1,1,0,0,1,.59.44l4.23,6.09a1,1,0,0,1,.08.92,1.75,1.75,0,0,1-.62.62,19.63,19.63,0,0,1-5,2.41,18.56,18.56,0,0,1-5.66.85A18.81,18.81,0,0,1,5.53,90a19.48,19.48,0,0,1-3-3.81A18.77,18.77,0,0,1,0,76.66a18.63,18.63,0,0,1,.67-5,18.88,18.88,0,0,1,1.9-4.53,19.44,19.44,0,0,1,3-3.85,18.67,18.67,0,0,1,3.83-3,19.39,19.39,0,0,1,4.51-1.9,18.25,18.25,0,0,1,5-.68,18.39,18.39,0,0,1,5.61.83A19.53,19.53,0,0,1,29.48,60.91Z"/><path class="cls-1" d="M34.33,79.31a16.37,16.37,0,0,1,.58-4.39A15.85,15.85,0,0,1,36.55,71a16,16,0,0,1,2.52-3.27,15.43,15.43,0,0,1,3.28-2.51,16,16,0,0,1,3.9-1.61,16.52,16.52,0,0,1,4.37-.57,16.15,16.15,0,0,1,11.47,4.69,16.37,16.37,0,0,1,3.46,5.15,16,16,0,0,1,1.28,6.4,16.28,16.28,0,0,1-2.22,8.26,15.81,15.81,0,0,1-2.52,3.28,16.13,16.13,0,0,1-3.28,2.53,16.17,16.17,0,0,1-8.19,2.19A16.52,16.52,0,0,1,46.25,95a16,16,0,0,1-3.9-1.62,16,16,0,0,1-5.8-5.81,16.28,16.28,0,0,1-2.22-8.26Zm9,0a9,9,0,0,0,.51,3,7.47,7.47,0,0,0,1.44,2.47,6.74,6.74,0,0,0,2.25,1.64,7,7,0,0,0,3,.61,6.74,6.74,0,0,0,2.91-.61,6.45,6.45,0,0,0,2.2-1.64A7.2,7.2,0,0,0,57,82.36a9.51,9.51,0,0,0,.48-3,9.41,9.41,0,0,0-.48-3,7.68,7.68,0,0,0-1.39-2.53A6.53,6.53,0,0,0,53.45,72a6.61,6.61,0,0,0-2.91-.63,6.67,6.67,0,0,0-5.23,2.35,8,8,0,0,0-1.44,2.53A8.91,8.91,0,0,0,43.36,79.31Z"/><path class="cls-1" d="M70.79,79.31a16.37,16.37,0,0,1,.58-4.39A15.85,15.85,0,0,1,73,71a16,16,0,0,1,2.52-3.27,15.43,15.43,0,0,1,3.28-2.51,16,16,0,0,1,3.9-1.61,16.52,16.52,0,0,1,4.37-.57,16.15,16.15,0,0,1,11.47,4.69A16.37,16.37,0,0,1,102,72.91a16,16,0,0,1,1.28,6.4,16.28,16.28,0,0,1-2.22,8.26,15.81,15.81,0,0,1-2.52,3.28,16.13,16.13,0,0,1-3.28,2.53A16.5,16.5,0,0,1,91.4,95a16.2,16.2,0,0,1-4.32.57A16.52,16.52,0,0,1,82.71,95a16,16,0,0,1-3.9-1.62A16,16,0,0,1,73,87.57a16.28,16.28,0,0,1-2.22-8.26Zm9,0a9,9,0,0,0,.51,3,7.47,7.47,0,0,0,1.44,2.47A6.74,6.74,0,0,0,84,86.47a7,7,0,0,0,3,.61,6.74,6.74,0,0,0,2.91-.61,6.45,6.45,0,0,0,2.2-1.64,7.2,7.2,0,0,0,1.39-2.47,9.51,9.51,0,0,0,.48-3,9.41,9.41,0,0,0-.48-3,7.68,7.68,0,0,0-1.39-2.53A6.53,6.53,0,0,0,89.91,72,6.61,6.61,0,0,0,87,71.41a6.67,6.67,0,0,0-5.23,2.35,8,8,0,0,0-1.44,2.53A8.91,8.91,0,0,0,79.82,79.31Z"/><path class="cls-1" d="M108.86,63.86a1.5,1.5,0,0,1,.67-.35,3.09,3.09,0,0,1,.66-.07h3.74a1.78,1.78,0,0,1,.78.15,1.29,1.29,0,0,1,.51.41,2.58,2.58,0,0,1,.33.59c.09.22.18.47.26.73l1,3,1.4-1.82a9.53,9.53,0,0,1,1.67-1.69,8.69,8.69,0,0,1,2.3-1.25,9.5,9.5,0,0,1,3.27-.49,15.47,15.47,0,0,1,6.25,1.25,14.84,14.84,0,0,1,4.93,3.44,16.12,16.12,0,0,1,3.23,5.15,18.18,18.18,0,0,1,0,12.78,16.06,16.06,0,0,1-3.23,5.16,15.12,15.12,0,0,1-11.18,4.72,8.73,8.73,0,0,1-2.77-.39,8.12,8.12,0,0,1-2.07-1,9.18,9.18,0,0,1-1.59-1.36c-.47-.49-.92-1-1.37-1.49v11.54a1.85,1.85,0,0,1-.44,1.26,1.73,1.73,0,0,1-1.39.52h-5.67a2,2,0,0,1-.64-.12,2.35,2.35,0,0,1-.64-.35,2,2,0,0,1-.5-.55,1.51,1.51,0,0,1-.2-.76V65.27a1.68,1.68,0,0,1,.19-.82A2.85,2.85,0,0,1,108.86,63.86ZM132,79.31a8.86,8.86,0,0,0-.52-3A7.9,7.9,0,0,0,130,73.81a6.85,6.85,0,0,0-2.26-1.68,6.72,6.72,0,0,0-2.89-.62,7.58,7.58,0,0,0-3,.58,7.87,7.87,0,0,0-4.16,4,7.39,7.39,0,0,0-.73,2.89v.38a7.83,7.83,0,0,0,2.3,5.55,8.12,8.12,0,0,0,2.5,1.67,7.5,7.5,0,0,0,3,.62,6.58,6.58,0,0,0,2.89-.62A7,7,0,0,0,130,84.86a7.69,7.69,0,0,0,1.46-2.49A9.06,9.06,0,0,0,132,79.31Z"/><path class="cls-1" d="M172.35,91.24a16.77,16.77,0,0,1-4.9,3.13,15,15,0,0,1-5.77,1.12A16.79,16.79,0,0,1,150,90.83a16.39,16.39,0,0,1-3.61-5.16A15.6,15.6,0,0,1,145,79.21a16.83,16.83,0,0,1,.53-4.22,17.07,17.07,0,0,1,1.51-3.83,16.25,16.25,0,0,1,2.38-3.28,15.05,15.05,0,0,1,3.13-2.56,15.69,15.69,0,0,1,3.76-1.66,15.42,15.42,0,0,1,4.28-.59,14.77,14.77,0,0,1,4,.54,15.64,15.64,0,0,1,6.73,3.91,16.38,16.38,0,0,1,2.43,3,14.77,14.77,0,0,1,1.57,3.51,13.48,13.48,0,0,1,.56,3.85c0,.86,0,1.56,0,2.1a2.41,2.41,0,0,1-.38,1.3,1.9,1.9,0,0,1-1.16.67,10.72,10.72,0,0,1-2.36.19H154.13a6.17,6.17,0,0,0,1,2.65,6.36,6.36,0,0,0,1.75,1.69,7,7,0,0,0,2.1.9,8.44,8.44,0,0,0,2.1.28,9.06,9.06,0,0,0,1.84-.19,13.94,13.94,0,0,0,1.82-.49,10.73,10.73,0,0,0,1.6-.72,5.22,5.22,0,0,0,1.18-.86,5.54,5.54,0,0,1,.68-.48,1.18,1.18,0,0,1,.61-.16,1.15,1.15,0,0,1,.65.22,5,5,0,0,1,.76.65l2.62,3a1.68,1.68,0,0,1,.35.58,1.88,1.88,0,0,1,.07.53,1.35,1.35,0,0,1-.27.85A3.53,3.53,0,0,1,172.35,91.24ZM160.44,70.62a4.85,4.85,0,0,0-1.87.38,7,7,0,0,0-1.69,1,8.93,8.93,0,0,0-2.45,3.12h12.64A13.49,13.49,0,0,0,166,73.37a7.6,7.6,0,0,0-1.39-1.44,6,6,0,0,0-1.78-1A7.21,7.21,0,0,0,160.44,70.62Z"/><path class="cls-1" d="M181.06,65.4a1.87,1.87,0,0,1,.17-.82,1.73,1.73,0,0,1,.46-.57,2.07,2.07,0,0,1,.64-.34,2.56,2.56,0,0,1,.71-.11h3.74a1.34,1.34,0,0,1,1,.38,3.15,3.15,0,0,1,.63.94,10.78,10.78,0,0,1,.46,1.26,11.62,11.62,0,0,0,.47,1.33l1.47-1.61a12.27,12.27,0,0,1,1.57-1.41,8.18,8.18,0,0,1,1.84-1,6.54,6.54,0,0,1,2.29-.38,12.33,12.33,0,0,1,2.39.2,10,10,0,0,1,2,.58,11.12,11.12,0,0,1,1.86,1c.62.39,1.29.85,2,1.38a1.75,1.75,0,0,1,1.07,1.46,2.46,2.46,0,0,1-.43,1.26l-2.25,3.84a2,2,0,0,1-1.66,1,2.67,2.67,0,0,1-1.11-.28,7.83,7.83,0,0,0-2.17-1.54,5.89,5.89,0,0,0-2.51-.51,4.83,4.83,0,0,0-1.69.27,4.53,4.53,0,0,0-1.33.77,7.07,7.07,0,0,0-1.11,1.19c-.35.46-.69,1-1,1.53V93.09a2,2,0,0,1-.46,1.43,2,2,0,0,1-1.52.48H183a1.7,1.7,0,0,1-1.93-1.91Z"/><path class="cls-1" d="M241.16,93.17a2.15,2.15,0,0,1-.15.8,1.25,1.25,0,0,1-.5.61,1.15,1.15,0,0,1-.64.34,3.37,3.37,0,0,1-.64.08h-4.88a2.16,2.16,0,0,1-.84-.14,1.28,1.28,0,0,1-.52-.38,2.35,2.35,0,0,1-.33-.61c-.1-.24-.19-.5-.29-.78L232.05,92a15.62,15.62,0,0,1-1.52,1.31,12.09,12.09,0,0,1-1.88,1.15,11.85,11.85,0,0,1-2.21.82,9.77,9.77,0,0,1-2.44.31,16.1,16.1,0,0,1-8.18-2.19,16,16,0,0,1-3.25-2.53,16.12,16.12,0,0,1-2.51-3.28,15.68,15.68,0,0,1-1.63-3.9,16.49,16.49,0,0,1-.56-4.36,16.13,16.13,0,0,1,1.26-6.4,16.32,16.32,0,0,1,3.44-5.15,15.86,15.86,0,0,1,5.12-3.44A16.08,16.08,0,0,1,224,63.07a11.27,11.27,0,0,1,2.86.34,11.91,11.91,0,0,1,2.43.94,9.87,9.87,0,0,1,2,1.43,10.94,10.94,0,0,1,1.56,1.79l.72-2.25c.16-.41.3-.75.41-1a1.64,1.64,0,0,1,.34-.57,1,1,0,0,1,.46-.25,3.79,3.79,0,0,1,.77-.06h3.69a3.27,3.27,0,0,1,.64.07,1.23,1.23,0,0,1,.64.35,1.62,1.62,0,0,1,.5.62,2,2,0,0,1,.15.79ZM216.78,79.31a9,9,0,0,0,.5,3,7.33,7.33,0,0,0,1.45,2.47,6.94,6.94,0,0,0,5.2,2.25,7.66,7.66,0,0,0,3.08-.61,7.94,7.94,0,0,0,2.48-1.64,7.46,7.46,0,0,0,1.64-2.47,8,8,0,0,0,0-6.07A7.8,7.8,0,0,0,227,72a7.51,7.51,0,0,0-3.08-.63A6.73,6.73,0,0,0,221,72a6.9,6.9,0,0,0-2.27,1.72,7.81,7.81,0,0,0-1.45,2.53A8.9,8.9,0,0,0,216.78,79.31Z"/><path class="cls-1" d="M249,58.66a1.35,1.35,0,0,1,.51-1.15,5.87,5.87,0,0,1,1.45-.73l5.62-2,.23,0H257a1.32,1.32,0,0,1,1.23.53,2.85,2.85,0,0,1,.31,1.4l0,6.81h3.39a1.81,1.81,0,0,1,1.29.47,1.85,1.85,0,0,1,.5,1.41V70.2a2,2,0,0,1-.5,1.52,1.77,1.77,0,0,1-1.29.48h-3.39l0,20.89a1.8,1.8,0,0,1-.55,1.43,2.19,2.19,0,0,1-1.51.48h-5.59A1.69,1.69,0,0,1,249,93.09l0-20.89h-2.55c-1.27,0-1.91-.67-1.91-2V65.42a1.68,1.68,0,0,1,1.91-1.88H249Z"/><path class="cls-1" d="M277.83,65.5V93.09a1.89,1.89,0,0,1-.51,1.43,2.14,2.14,0,0,1-1.49.48h-5.67c-1.22,0-1.83-.64-1.83-1.91V65.5a2.16,2.16,0,0,1,.45-1.36,1.62,1.62,0,0,1,1.38-.57h5.67a1.74,1.74,0,0,1,.64.13,2.25,2.25,0,0,1,.65.39,2.71,2.71,0,0,1,.51.61A1.61,1.61,0,0,1,277.83,65.5Z"/><path class="cls-2" d="M277.83,53V57.8a1.84,1.84,0,0,1-.12.63,2.8,2.8,0,0,1-.39.67,2,2,0,0,1-.61.54,1.58,1.58,0,0,1-.81.21h-5.74c-1.22,0-1.83-.68-1.83-2.05V53a2,2,0,0,1,.45-1.47,2,2,0,0,1,1.38-.44h5.74a2.22,2.22,0,0,1,1.41.44A1.8,1.8,0,0,1,277.83,53Z"/><path class="cls-1" d="M282.81,79.31a16.78,16.78,0,0,1,.58-4.39A16.24,16.24,0,0,1,285,71a16,16,0,0,1,2.52-3.27,15.69,15.69,0,0,1,3.28-2.51,16.35,16.35,0,0,1,3.9-1.61,16.52,16.52,0,0,1,4.37-.57,16.12,16.12,0,0,1,6.32,1.25,15.88,15.88,0,0,1,5.15,3.44A16.4,16.4,0,0,1,314,72.91a16.73,16.73,0,0,1,.69,10.76,16.47,16.47,0,0,1-1.63,3.9,16.18,16.18,0,0,1-5.81,5.81,16.17,16.17,0,0,1-8.19,2.19,16.39,16.39,0,0,1-8.27-2.19,16.13,16.13,0,0,1-3.28-2.53A15.81,15.81,0,0,1,285,87.57a16.28,16.28,0,0,1-2.22-8.26Zm9,0a9.25,9.25,0,0,0,.5,3,7.47,7.47,0,0,0,1.44,2.47A6.74,6.74,0,0,0,296,86.47a7,7,0,0,0,3,.61,6.66,6.66,0,0,0,2.9-.61,6.58,6.58,0,0,0,2.21-1.64,7.35,7.35,0,0,0,1.38-2.47,9.64,9.64,0,0,0,0-6.07,7.84,7.84,0,0,0-1.38-2.53A6.67,6.67,0,0,0,301.93,72a6.53,6.53,0,0,0-2.9-.63,6.9,6.9,0,0,0-3,.63,6.82,6.82,0,0,0-2.25,1.72,8,8,0,0,0-1.44,2.53A9.15,9.15,0,0,0,291.85,79.31Z"/><path class="cls-1" d="M320.88,64a1.48,1.48,0,0,1,.68-.35,3.39,3.39,0,0,1,.68-.08H326a1.68,1.68,0,0,1,.77.17,1.61,1.61,0,0,1,.54.43,2.24,2.24,0,0,1,.36.62c.09.23.18.47.26.71l.52,2.17a6.11,6.11,0,0,1,1.2-1.58,9.32,9.32,0,0,1,2.06-1.48,12.65,12.65,0,0,1,2.83-1.09,13.73,13.73,0,0,1,3.59-.44,11,11,0,0,1,8.8,4,13.13,13.13,0,0,1,2.35,4.39,17.27,17.27,0,0,1,.8,5.35V93.09a2.2,2.2,0,0,1-.4,1.43,1.63,1.63,0,0,1-1.3.48h-5.72a2.2,2.2,0,0,1-1.46-.36,1.86,1.86,0,0,1-.4-1.4V77.13a4.42,4.42,0,0,0-.48-2A5.68,5.68,0,0,0,339,73.43a5.9,5.9,0,0,0-1.79-1.15,5.25,5.25,0,0,0-2-.42,4.66,4.66,0,0,0-1.82.39,6,6,0,0,0-1.71,1.1A6.45,6.45,0,0,0,330.35,75a4.83,4.83,0,0,0-.61,2.07V93.17a2.28,2.28,0,0,1-.16.84,1.38,1.38,0,0,1-.48.64,2.12,2.12,0,0,1-.61.27,2.57,2.57,0,0,1-.65.08h-5.6a1.74,1.74,0,0,1-2-1.91V65.41a1.79,1.79,0,0,1,.21-.86,1.57,1.57,0,0,1,.58-.62Z"/><path class="cls-1" d="M29.48,6.71a1.52,1.52,0,0,1,.62.64,1,1,0,0,1-.08.94l-4.18,5.94a1,1,0,0,1-.58.48,1,1,0,0,1-.76-.21,9.36,9.36,0,0,0-2.67-1.41,9.53,9.53,0,0,0-3.09-.49,8.88,8.88,0,0,0-3.74.77,9,9,0,0,0-2.95,2.1,9.93,9.93,0,0,0-1.93,3.12,10.84,10.84,0,0,0,0,7.61,9.79,9.79,0,0,0,1.93,3.09A9.17,9.17,0,0,0,15,31.39a9,9,0,0,0,3.74.76,9.54,9.54,0,0,0,3.12-.51,9.36,9.36,0,0,0,2.69-1.42A1.18,1.18,0,0,1,25.3,30a1,1,0,0,1,.59.44l4.23,6.09a1,1,0,0,1,.08.92,1.67,1.67,0,0,1-.62.62,19.63,19.63,0,0,1-5,2.41,18.56,18.56,0,0,1-5.66.86,19,19,0,0,1-5-.67A19,19,0,0,1,5.53,35.8a18.9,18.9,0,0,1-3-3.81,18.34,18.34,0,0,1-1.9-4.5,19.29,19.29,0,0,1,0-10.08,18.88,18.88,0,0,1,1.9-4.53A19.44,19.44,0,0,1,5.53,9,18.28,18.28,0,0,1,9.36,6.08a19,19,0,0,1,4.51-1.91,19.2,19.2,0,0,1,10.65.15A19.23,19.23,0,0,1,29.48,6.71Z"/><path class="cls-1" d="M94.15,37.7A15.84,15.84,0,0,1,92.63,39a12.4,12.4,0,0,1-1.85,1.18,12.11,12.11,0,0,1-2.16.84,9.16,9.16,0,0,1-2.44.32A15.1,15.1,0,0,1,80,40.1a14.87,14.87,0,0,1-4.87-3.45,15.84,15.84,0,0,1-3.19-5.17,17.42,17.42,0,0,1-1.15-6.38,17.41,17.41,0,0,1,1.15-6.4,15.85,15.85,0,0,1,3.19-5.15A14.7,14.7,0,0,1,80,10.11a15.26,15.26,0,0,1,6.2-1.25,12,12,0,0,1,2.49.24,8.59,8.59,0,0,1,2.06.68,8.75,8.75,0,0,1,1.71,1.06,13.46,13.46,0,0,1,1.47,1.36V1.88A2,2,0,0,1,94.39.54,1.85,1.85,0,0,1,95.84,0h5.57a2,2,0,0,1,.68.14,2,2,0,0,1,.65.38,2,2,0,0,1,.49.59,1.65,1.65,0,0,1,.18.77v37c0,1.27-.67,1.9-2,1.9H96.56a2,2,0,0,1-.77-.12,1.34,1.34,0,0,1-.46-.36,2.79,2.79,0,0,1-.33-.6l-.37-.82ZM79.68,25.1a9.26,9.26,0,0,0,.5,3.06,7.38,7.38,0,0,0,1.45,2.46,6.94,6.94,0,0,0,5.2,2.25,7.83,7.83,0,0,0,3-.57,7.58,7.58,0,0,0,2.44-1.57,7.87,7.87,0,0,0,1.67-2.37,7.74,7.74,0,0,0,.71-2.91V25.1a7.75,7.75,0,0,0-.6-3,7.8,7.8,0,0,0-4.12-4.25,7.54,7.54,0,0,0-3.08-.63,6.73,6.73,0,0,0-2.93.63,6.9,6.9,0,0,0-2.27,1.72,7.81,7.81,0,0,0-1.45,2.53A9.2,9.2,0,0,0,79.68,25.1Z"/><path class="cls-1" d="M136.33,37a16.31,16.31,0,0,1-4.9,3.13,14.94,14.94,0,0,1-5.76,1.13A16.86,16.86,0,0,1,114,36.62a16.58,16.58,0,0,1-3.62-5.16A15.56,15.56,0,0,1,109,25a16.44,16.44,0,0,1,.53-4.22A16.61,16.61,0,0,1,111.05,17a16.14,16.14,0,0,1,2.37-3.27,15.16,15.16,0,0,1,3.14-2.57,15.52,15.52,0,0,1,3.76-1.66,15.37,15.37,0,0,1,4.28-.59,14.4,14.4,0,0,1,4,.55,15.86,15.86,0,0,1,9.15,6.94,15,15,0,0,1,1.58,3.51,13.47,13.47,0,0,1,.55,3.85c0,.86,0,1.56,0,2.11a2.47,2.47,0,0,1-.39,1.3,1.83,1.83,0,0,1-1.15.66,10.78,10.78,0,0,1-2.36.19H118.12a6.12,6.12,0,0,0,1,2.65,6.19,6.19,0,0,0,1.74,1.69,6.92,6.92,0,0,0,2.11.91,8.57,8.57,0,0,0,3.93.08,13.14,13.14,0,0,0,1.82-.49,10.86,10.86,0,0,0,1.61-.72,5.53,5.53,0,0,0,1.18-.85,4.8,4.8,0,0,1,.68-.49,1.28,1.28,0,0,1,.6-.16,1.17,1.17,0,0,1,.66.23,4.76,4.76,0,0,1,.75.64l2.63,3a1.5,1.5,0,0,1,.34.58,2,2,0,0,1,.08.53,1.4,1.4,0,0,1-.27.86A3,3,0,0,1,136.33,37Zm-11.9-20.62a4.81,4.81,0,0,0-1.87.38,7.28,7.28,0,0,0-1.7,1,9.35,9.35,0,0,0-1.42,1.46,9.6,9.6,0,0,0-1,1.66h12.65a14.23,14.23,0,0,0-1.13-1.78,7.26,7.26,0,0,0-1.38-1.44,6,6,0,0,0-1.78-1A7.2,7.2,0,0,0,124.43,16.41Z"/><path class="cls-3" d="M66.47,25.11c0,.45,0,.89-.06,1.33a9.44,9.44,0,0,1-2.79,5.92l-6.18,6.13a1,1,0,0,1-.75.33.84.84,0,0,1-.67-.34l-4-3.9a1.12,1.12,0,0,1-.38-.84,1.16,1.16,0,0,1,.25-.67,1,1,0,0,1,.13-.15l7.06-7a1.18,1.18,0,0,0,0-1.67l-7-7.17a1.21,1.21,0,0,1-.2-.39h0a1.11,1.11,0,0,1,0-.74h0a1.07,1.07,0,0,1,.25-.36l3.89-3.85a1.06,1.06,0,0,1,.8-.31,1,1,0,0,1,.73.27l6,6.07a9.64,9.64,0,0,1,2.65,5.17A14.58,14.58,0,0,1,66.47,25.11Z"/><path class="cls-2" d="M48.54,33.56a1.17,1.17,0,0,1,0,.74h0a1,1,0,0,1-.24.36l-3.9,3.85a1,1,0,0,1-.8.31,1,1,0,0,1-.73-.27L36.77,32.4A9.51,9.51,0,0,1,34,26.57c0-.48-.06-1-.06-1.46s0-.9.05-1.34a9.45,9.45,0,0,1,2.8-5.91L43,11.73a1,1,0,0,1,.76-.33.85.85,0,0,1,.67.34l3.95,3.9a1.21,1.21,0,0,1,.38.85,1.24,1.24,0,0,1-.26.67.86.86,0,0,1-.13.14l-7.06,7a1.2,1.2,0,0,0,0,1.68l7,7.16a1,1,0,0,1,.2.39Z"/></g></g></svg>