<svg xmlns="http://www.w3.org/2000/svg" width="228" height="81" viewBox="0 0 228 81" fill="none"><path d="M17.119 42.037C17.727 42.1582 18.3578 42.2188 19.0114 42.2188C24.1642 42.2188 28.3366 38.2513 28.3366 33.3602C28.3366 23.6385 17.005 23.3053 10.3474 15.6658C7.57338 12.4858 5.61258 8.03376 5.61258 1.11348V0.0307617H16.8226V1.1059C16.8226 5.0809 17.4154 8.00348 20.7898 10.4793C26.049 14.3256 30.9966 15.5143 35.3894 21.1248C38.209 24.7212 39.5466 28.8855 39.5466 33.3602C39.5466 37.2898 38.323 40.9543 36.2178 44.0132C32.5546 49.351 26.2162 52.8718 19.0114 52.8718C10.4234 52.8718 3.06658 47.8595 0.00378418 40.7423L9.94458 35.3969C10.773 38.7283 13.585 41.3405 17.1266 42.0295L17.119 42.037Z" fill="white"></path><path d="M61.2136 52.8713H49.2816L69.49 0L80.7532 0.0681429L100.916 52.8713H88.984L75.0988 16.6041L61.2136 52.8713Z" fill="white"></path><path d="M110.637 15.5593V0.0302857L138.179 25.0917L165.721 0V52.8713H154.504V25.3264L138.179 39.5456L121.854 25.3264L110.637 15.5593Z" fill="white"></path><path d="M110.637 28.9761V52.8715H121.854V38.7432L110.637 28.9761Z" fill="white"></path><path d="M206.974 52.8712H195.757V28.7032L194.525 27.0299L174.439 0.166504H188.126L201.365 17.7398L206.974 25.3491V28.8622V52.8712Z" fill="white"></path><path d="M214.407 0.0307617L227.996 0.167047L214.559 18.399L207.719 9.1089L214.407 0.0307617Z" fill="white"></path><path d="M11.8822 80.0427H12.1822V80.0222C13.1165 79.988 13.9846 79.7936 14.7779 79.4415C15.6598 79.0502 16.3711 78.4799 16.9052 77.7463C17.447 77.0021 17.715 76.1366 17.715 75.162V74.9652V74.6652H17.415H16.8146H16.5146V74.9652V75.162C16.5146 76.3225 16.1077 77.2031 15.3174 77.8525C14.5137 78.5066 13.3809 78.8522 11.8822 78.8522C10.7697 78.8522 9.81952 78.6191 9.02106 78.1646C8.22345 77.7105 7.6099 77.0585 7.17147 76.1992C6.7343 75.3425 6.51264 74.3165 6.51264 73.0572C6.51264 71.7965 6.73474 70.7487 7.171 69.9008C7.60949 69.0487 8.22326 68.3963 9.02106 67.9422C9.81952 67.4876 10.7697 67.2546 11.8822 67.2546C13.3813 67.2546 14.5143 67.6003 15.318 68.2548C16.1143 68.9032 16.5146 69.7827 16.5146 70.9447V71.1416V71.4416H16.8146H17.415H17.715V71.1416V70.9447C17.715 69.9568 17.4479 69.0829 16.9047 68.3447C16.3699 67.6103 15.6582 67.0483 14.7779 66.6577C13.9003 66.2682 12.9312 66.0716 11.8822 66.0716C10.6401 66.0716 9.51643 66.3638 8.51813 66.9367L8.51813 66.9367L8.51658 66.9376C7.51756 67.5188 6.73472 68.3317 6.1623 69.3772C5.58666 70.4286 5.30464 71.6612 5.30464 73.0572C5.30464 74.4531 5.58666 75.6857 6.1623 76.7371C6.73472 77.7826 7.51756 78.5955 8.51658 79.1768C9.51684 79.7587 10.6414 80.0427 11.8822 80.0427Z" fill="white" stroke="white" stroke-width="0.6"></path><path d="M43.5218 79.846H43.8218V79.546V73.5769H52.433V79.546V79.846H52.733H53.3182H53.6182V79.546V66.5762V66.2762H53.3182H52.733H52.433V66.5762V72.4317H43.8218V66.5762V66.2762H43.5218H42.9366H42.6366V66.5762V79.546V79.846H42.9366H43.5218Z" fill="white" stroke="white" stroke-width="0.6"></path><path d="M77.9731 79.4201L77.7762 79.846H78.2455H78.3905H78.8611H78.8687V79.5496L79.133 79.6726L81.0504 75.553H88.194L90.1262 79.6734L90.2072 79.846H90.3979H91.0211H91.4903L91.2934 79.4201L85.297 66.4503L85.2165 66.2762H85.0247H84.2419H84.05L83.9695 66.4503L77.9731 79.4201ZM85.0418 68.8311L87.657 74.4079H81.5834L84.1794 68.8303L84.1795 68.8304L84.1822 68.8243L84.6032 67.8649L85.0403 68.8278L85.0403 68.8278L85.0418 68.8311Z" fill="white" stroke="white" stroke-width="0.6"></path><path d="M116.55 79.846H116.85V79.546V73.9857H124.804H125.104V73.6857V73.1406V72.8406H124.804H116.85V67.4213H125.1H125.4V67.1213V66.5762V66.2762H125.1H116.85H116.55H116.254H115.965H115.954H115.665V66.5762V79.546V79.846H115.965H116.55Z" fill="white" stroke="white" stroke-width="0.6"></path><path d="M151.198 79.846H151.498V79.546V73.9857H159.459H159.759V73.6857V73.1406V72.8406H159.459H151.498V67.4213H159.748H160.048V67.1213V66.5762V66.2762H159.748H151.498H151.198H150.902H150.613H150.602H150.313V66.5762V79.546V79.846H150.613H151.198Z" fill="white" stroke="white" stroke-width="0.6"></path><path d="M183.826 79.4201L183.629 79.846H184.099H184.244H184.714H184.722V79.5496L184.986 79.6726L186.904 75.553H194.047L195.979 79.6734L196.06 79.846H196.251H196.874H197.343L197.146 79.4201L191.15 66.4503L191.07 66.2762H190.878H190.095H189.903L189.823 66.4503L183.826 79.4201ZM190.895 68.8311L193.51 74.4079H187.437L190.033 68.8303L190.033 68.8304L190.035 68.8243L190.456 67.8649L190.893 68.8278L190.893 68.8278L190.895 68.8311Z" fill="white" stroke="white" stroke-width="0.6"></path><path d="M222.395 79.846H222.695V79.546V66.5762V66.2762H222.395H221.81H221.51V66.5762V79.546V79.846H221.81H222.395Z" fill="white" stroke="white" stroke-width="0.6"></path></svg>